<svg xmlns="http://www.w3.org/2000/svg" viewBox="0 0 19.25 19.99"><defs><style>.cls-1{fill:#fff;}</style></defs><title>logo_fizz</title><g id="Capa_2" data-name="Capa 2"><g id="Layer_1" data-name="Layer 1"><path class="cls-1" d="M18.29,13.24,12.69,4.9V1.14h.68a.57.57,0,1,0,0-1.14H5.88a.56.56,0,0,0-.57.57.56.56,0,0,0,.57.57h.68V4.9L1,13.21A4.66,4.66,0,0,0,.1,16.73,3.47,3.47,0,0,0,2.3,19c.08,0,2.13,1,7.33,1s7.24-1,7.29-1a3.49,3.49,0,0,0,2.23-2.24A4.57,4.57,0,0,0,18.29,13.24ZM18,16.44a2.44,2.44,0,0,1-1.59,1.49s-2,.92-6.82.92-6.81-.91-6.86-.93a2.4,2.4,0,0,1-1.56-1.48,3.49,3.49,0,0,1,.7-2.57L7.6,5.39a.5.5,0,0,0,.1-.31V1.14h3.85V5.08a.56.56,0,0,0,.09.31l5.72,8.51A3.47,3.47,0,0,1,18,16.44ZM6.63,10.18c0-.85,1.35-1.56,3-1.56s3,.71,3,1.56-1.35,1.55-3,1.55S6.63,11,6.63,10.18Zm9.23,4a2.47,2.47,0,0,1,.5,1.73,1.62,1.62,0,0,1-1,.92l-.06,0s-1.63.75-5.69.75-5.67-.74-5.67-.74l-.07,0a1.62,1.62,0,0,1-1-.92,2.47,2.47,0,0,1,.49-1.73l0,0,2.2-3.28C5.8,12.1,7.48,13,9.58,13a6.14,6.14,0,0,0,1.24-.12,1.22,1.22,0,0,0-.06.26,1.21,1.21,0,0,0,2.41,0,1.19,1.19,0,0,0-.53-1,2.25,2.25,0,0,0,1-1.34l2.2,3.28Z"/></g></g></svg>